# xmcd CD database file
#
# Track frame offsets:
#	150
#	12925
#	27866
#	43246
#	57860
#	68232
#	83382
#	100208
#	113098
#	130293
#	141379
#	156275
#
# Disc length: 2332 seconds
#
# Revision: 0
# Processed by: cddbd v1.5.1PL2 Copyright (c) Steve Scherf et al.
# Submitted via: CDex 1.51
#
DISCID=9d091a0c
DTITLE=Rick Moranis - Agoraphobic Cowboy
DYEAR=1900
DGENRE=Country
TTITLE0=Nine More Gallons
TTITLE1=It's The Champgane Talkin'
TTITLE2=Give Me The News
TTITLE3=Press Pound
TTITLE4=I Ain't Goin' Nowhere
TTITLE5=Wheaties Box
TTITLE6=Three Days Rest
TTITLE7=Oh So Bucco
TTITLE8=Five Star Motels
TTITLE9=Mean Old Man
TTITLE10=Four More Beers
TTITLE11=SOS
EXTD=
EXTT0=
EXTT1=
EXTT2=
EXTT3=
EXTT4=
EXTT5=
EXTT6=
EXTT7=
EXTT8=
EXTT9=
EXTT10=
EXTT11=
PLAYORDER=
